<svg xmlns="http://www.w3.org/2000/svg" viewBox="0 0 40 40" width="200" height="200">
  <path d="M20,20 L2,20 A18,18 0 0,1 20,2 Z" fill="#003d3e"></path>
  <path d="M20,20 L20,2 A18,18 0 0,1 38,20 Z" fill="#008687"></path>
  <path d="M20,20 L20,38 A18,18 0 0,1 2,20 Z" fill="#1aa0a1"></path>
  <path d="M38,20 A18,18 0 0,1 20,38" fill="none" stroke="#c5ebec" stroke-width="1.2" stroke-dasharray="1.6,2.2"
    stroke-linecap="round"></path>
  <line x1="20" y1="2" x2="20" y2="38" stroke="rgba(255,255,255,0.55)" stroke-width="1.1"></line>
  <line x1="2" y1="20" x2="38" y2="20" stroke="rgba(255,255,255,0.55)" stroke-width="1.1"></line>
  <circle cx="20" cy="20" r="3" fill="white"></circle>
  <circle cx="20" cy="20" r="1.4" fill="#c5ebec"></circle>
  <circle cx="38" cy="20" r="2.2" fill="white"></circle>
  <circle cx="38" cy="20" r="1" fill="#9ed4d4"></circle>
  <circle cx="20" cy="38" r="2.2" fill="white"></circle>
  <circle cx="20" cy="38" r="1" fill="#9ed4d4"></circle>
  <circle cx="29" cy="29" r="2.5" fill="#c5ebec"></circle>
  <circle cx="29" cy="29" r="1.1" fill="#9ed4d4"></circle>
</svg>